<svg width="751" height="86" viewBox="0 0 751 86" fill="none" xmlns="http://www.w3.org/2000/svg">
<rect width="236.8" height="86" rx="10" fill="#EAAA00"/>
<path d="M36.904 46.728H32.248L31.448 49H29.544L33.528 37.864H35.64L39.624 49H37.704L36.904 46.728ZM36.392 45.24L34.584 40.072L32.76 45.24H36.392ZM43.1803 37.16V49H41.3563V37.16H43.1803ZM47.399 37.16V49H45.575V37.16H47.399ZM59.726 49L57.166 44.552H55.774V49H53.95V37.88H57.79C58.6433 37.88 59.3633 38.0293 59.95 38.328C60.5473 38.6267 60.99 39.0267 61.278 39.528C61.5767 40.0293 61.726 40.5893 61.726 41.208C61.726 41.9333 61.5127 42.5947 61.086 43.192C60.67 43.7787 60.0247 44.1787 59.15 44.392L61.902 49H59.726ZM55.774 43.096H57.79C58.4727 43.096 58.9847 42.9253 59.326 42.584C59.678 42.2427 59.854 41.784 59.854 41.208C59.854 40.632 59.6833 40.184 59.342 39.864C59.0007 39.5333 58.4833 39.368 57.79 39.368H55.774V43.096ZM72.1394 44.376C72.1394 44.7067 72.118 45.0053 72.0754 45.272H65.3394C65.3927 45.976 65.654 46.5413 66.1234 46.968C66.5927 47.3947 67.1687 47.608 67.8514 47.608C68.8327 47.608 69.526 47.1973 69.9314 46.376H71.8994C71.6327 47.1867 71.1474 47.8533 70.4434 48.376C69.75 48.888 68.886 49.144 67.8514 49.144C67.0087 49.144 66.2514 48.9573 65.5794 48.584C64.918 48.2 64.3954 47.6667 64.0114 46.984C63.638 46.2907 63.4514 45.4907 63.4514 44.584C63.4514 43.6773 63.6327 42.8827 63.9954 42.2C64.3687 41.5067 64.886 40.9733 65.5474 40.6C66.2194 40.2267 66.9874 40.04 67.8514 40.04C68.6834 40.04 69.4247 40.2213 70.0754 40.584C70.726 40.9467 71.2327 41.4587 71.5954 42.12C71.958 42.7707 72.1394 43.5227 72.1394 44.376ZM70.2354 43.8C70.2247 43.128 69.9847 42.5893 69.5154 42.184C69.046 41.7787 68.4647 41.576 67.7714 41.576C67.142 41.576 66.6034 41.7787 66.1554 42.184C65.7074 42.5787 65.4407 43.1173 65.3554 43.8H70.2354ZM73.3264 44.584C73.3264 43.6773 73.5077 42.8827 73.8704 42.2C74.2437 41.5067 74.7557 40.9733 75.4064 40.6C76.057 40.2267 76.8037 40.04 77.6464 40.04C78.713 40.04 79.593 40.296 80.2864 40.808C80.9904 41.3093 81.465 42.0293 81.7104 42.968H79.7424C79.5824 42.5307 79.3264 42.1893 78.9744 41.944C78.6224 41.6987 78.1797 41.576 77.6464 41.576C76.8997 41.576 76.3024 41.8427 75.8544 42.376C75.417 42.8987 75.1984 43.6347 75.1984 44.584C75.1984 45.5333 75.417 46.2747 75.8544 46.808C76.3024 47.3413 76.8997 47.608 77.6464 47.608C78.7024 47.608 79.401 47.144 79.7424 46.216H81.7104C81.4544 47.112 80.9744 47.8267 80.2704 48.36C79.5664 48.8827 78.6917 49.144 77.6464 49.144C76.8037 49.144 76.057 48.9573 75.4064 48.584C74.7557 48.2 74.2437 47.6667 73.8704 46.984C73.5077 46.2907 73.3264 45.4907 73.3264 44.584ZM84.4561 39.016C84.1255 39.016 83.8481 38.904 83.6241 38.68C83.4001 38.456 83.2881 38.1787 83.2881 37.848C83.2881 37.5173 83.4001 37.24 83.6241 37.016C83.8481 36.792 84.1255 36.68 84.4561 36.68C84.7761 36.68 85.0481 36.792 85.2721 37.016C85.4961 37.24 85.6081 37.5173 85.6081 37.848C85.6081 38.1787 85.4961 38.456 85.2721 38.68C85.0481 38.904 84.7761 39.016 84.4561 39.016ZM85.3521 40.184V49H83.5281V40.184H85.3521ZM89.5709 41.48C89.8802 41.0747 90.3015 40.7333 90.8349 40.456C91.3682 40.1787 91.9709 40.04 92.6429 40.04C93.4109 40.04 94.1095 40.232 94.7389 40.616C95.3789 40.9893 95.8802 41.5173 96.2429 42.2C96.6055 42.8827 96.7869 43.6667 96.7869 44.552C96.7869 45.4373 96.6055 46.232 96.2429 46.936C95.8802 47.6293 95.3789 48.1733 94.7389 48.568C94.1095 48.952 93.4109 49.144 92.6429 49.144C91.9709 49.144 91.3735 49.0107 90.8509 48.744C90.3282 48.4667 89.9015 48.1253 89.5709 47.72V53.192H87.7469V40.184H89.5709V41.48ZM94.9309 44.552C94.9309 43.944 94.8029 43.4213 94.5469 42.984C94.3015 42.536 93.9709 42.2 93.5549 41.976C93.1495 41.7413 92.7122 41.624 92.2429 41.624C91.7842 41.624 91.3469 41.7413 90.9309 41.976C90.5255 42.2107 90.1949 42.552 89.9389 43C89.6935 43.448 89.5709 43.976 89.5709 44.584C89.5709 45.192 89.6935 45.7253 89.9389 46.184C90.1949 46.632 90.5255 46.9733 90.9309 47.208C91.3469 47.4427 91.7842 47.56 92.2429 47.56C92.7122 47.56 93.1495 47.4427 93.5549 47.208C93.9709 46.9627 94.3015 46.6107 94.5469 46.152C94.8029 45.6933 94.9309 45.16 94.9309 44.552ZM106.671 44.376C106.671 44.7067 106.649 45.0053 106.607 45.272H99.8706C99.924 45.976 100.185 46.5413 100.655 46.968C101.124 47.3947 101.7 47.608 102.383 47.608C103.364 47.608 104.057 47.1973 104.463 46.376H106.431C106.164 47.1867 105.679 47.8533 104.975 48.376C104.281 48.888 103.417 49.144 102.383 49.144C101.54 49.144 100.783 48.9573 100.111 48.584C99.4493 48.2 98.9266 47.6667 98.5426 46.984C98.1693 46.2907 97.9826 45.4907 97.9826 44.584C97.9826 43.6773 98.164 42.8827 98.5266 42.2C98.9 41.5067 99.4173 40.9733 100.079 40.6C100.751 40.2267 101.519 40.04 102.383 40.04C103.215 40.04 103.956 40.2213 104.607 40.584C105.257 40.9467 105.764 41.4587 106.127 42.12C106.489 42.7707 106.671 43.5227 106.671 44.376ZM104.767 43.8C104.756 43.128 104.516 42.5893 104.047 42.184C103.577 41.7787 102.996 41.576 102.303 41.576C101.673 41.576 101.135 41.7787 100.687 42.184C100.239 42.5787 99.972 43.1173 99.8866 43.8H104.767ZM111.666 49.144C110.972 49.144 110.348 49.0213 109.794 48.776C109.25 48.52 108.818 48.1787 108.498 47.752C108.178 47.3147 108.007 46.8293 107.986 46.296H109.874C109.906 46.6693 110.082 46.984 110.402 47.24C110.732 47.4853 111.143 47.608 111.634 47.608C112.146 47.608 112.54 47.512 112.818 47.32C113.106 47.1173 113.25 46.8613 113.25 46.552C113.25 46.2213 113.09 45.976 112.77 45.816C112.46 45.656 111.964 45.48 111.282 45.288C110.62 45.1067 110.082 44.9307 109.666 44.76C109.25 44.5893 108.887 44.328 108.578 43.976C108.279 43.624 108.13 43.16 108.13 42.584C108.13 42.1147 108.268 41.688 108.546 41.304C108.823 40.9093 109.218 40.6 109.73 40.376C110.252 40.152 110.85 40.04 111.522 40.04C112.524 40.04 113.33 40.296 113.938 40.808C114.556 41.3093 114.887 41.9973 114.93 42.872H113.106C113.074 42.4773 112.914 42.1627 112.626 41.928C112.338 41.6933 111.948 41.576 111.458 41.576C110.978 41.576 110.61 41.6667 110.354 41.848C110.098 42.0293 109.97 42.2693 109.97 42.568C109.97 42.8027 110.055 43 110.226 43.16C110.396 43.32 110.604 43.448 110.85 43.544C111.095 43.6293 111.458 43.7413 111.938 43.88C112.578 44.0507 113.1 44.2267 113.506 44.408C113.922 44.5787 114.279 44.8347 114.578 45.176C114.876 45.5173 115.031 45.9707 115.042 46.536C115.042 47.0373 114.903 47.4853 114.626 47.88C114.348 48.2747 113.954 48.584 113.442 48.808C112.94 49.032 112.348 49.144 111.666 49.144Z" fill="white"/>
<path d="M195.27 43L189.907 37.6375L191.439 36.1057L198.333 43L191.439 49.8943L189.907 48.3625L195.27 43Z" fill="white"/>
<rect x="256.8" width="236.8" height="86" rx="10" fill="#C4D600"/>
<path d="M294.784 37.88L290.608 49H288.496L284.304 37.88H286.256L289.552 47.128L292.864 37.88H294.784ZM304.39 44.376C304.39 44.7067 304.368 45.0053 304.326 45.272H297.59C297.643 45.976 297.904 46.5413 298.374 46.968C298.843 47.3947 299.419 47.608 300.102 47.608C301.083 47.608 301.776 47.1973 302.182 46.376H304.15C303.883 47.1867 303.398 47.8533 302.694 48.376C302 48.888 301.136 49.144 300.102 49.144C299.259 49.144 298.502 48.9573 297.83 48.584C297.168 48.2 296.646 47.6667 296.262 46.984C295.888 46.2907 295.702 45.4907 295.702 44.584C295.702 43.6773 295.883 42.8827 296.246 42.2C296.619 41.5067 297.136 40.9733 297.798 40.6C298.47 40.2267 299.238 40.04 300.102 40.04C300.934 40.04 301.675 40.2213 302.326 40.584C302.976 40.9467 303.483 41.4587 303.846 42.12C304.208 42.7707 304.39 43.5227 304.39 44.376ZM302.486 43.8C302.475 43.128 302.235 42.5893 301.766 42.184C301.296 41.7787 300.715 41.576 300.022 41.576C299.392 41.576 298.854 41.7787 298.406 42.184C297.958 42.5787 297.691 43.1173 297.606 43.8H302.486ZM309.737 40.04C310.419 40.04 311.022 40.1787 311.545 40.456C312.078 40.7227 312.494 41.0587 312.793 41.464V40.184H314.633V49.144C314.633 49.9547 314.462 50.6747 314.121 51.304C313.779 51.944 313.283 52.4453 312.633 52.808C311.993 53.1707 311.225 53.352 310.329 53.352C309.134 53.352 308.142 53.0693 307.353 52.504C306.563 51.9493 306.115 51.192 306.009 50.232H307.817C307.955 50.6907 308.249 51.0587 308.697 51.336C309.155 51.624 309.699 51.768 310.329 51.768C311.065 51.768 311.657 51.544 312.105 51.096C312.563 50.648 312.793 49.9973 312.793 49.144V47.672C312.483 48.088 312.062 48.44 311.529 48.728C311.006 49.0053 310.409 49.144 309.737 49.144C308.969 49.144 308.265 48.952 307.625 48.568C306.995 48.1733 306.494 47.6293 306.121 46.936C305.758 46.232 305.577 45.4373 305.577 44.552C305.577 43.6667 305.758 42.8827 306.121 42.2C306.494 41.5173 306.995 40.9893 307.625 40.616C308.265 40.232 308.969 40.04 309.737 40.04ZM312.793 44.584C312.793 43.976 312.665 43.448 312.409 43C312.163 42.552 311.838 42.2107 311.433 41.976C311.027 41.7413 310.59 41.624 310.121 41.624C309.651 41.624 309.214 41.7413 308.809 41.976C308.403 42.2 308.073 42.536 307.817 42.984C307.571 43.4213 307.449 43.944 307.449 44.552C307.449 45.16 307.571 45.6933 307.817 46.152C308.073 46.6107 308.403 46.9627 308.809 47.208C309.225 47.4427 309.662 47.56 310.121 47.56C310.59 47.56 311.027 47.4427 311.433 47.208C311.838 46.9733 312.163 46.632 312.409 46.184C312.665 45.7253 312.793 45.192 312.793 44.584ZM326.961 49L324.401 44.552H323.009V49H321.185V37.88H325.025C325.878 37.88 326.598 38.0293 327.185 38.328C327.782 38.6267 328.225 39.0267 328.513 39.528C328.811 40.0293 328.961 40.5893 328.961 41.208C328.961 41.9333 328.747 42.5947 328.321 43.192C327.905 43.7787 327.259 44.1787 326.385 44.392L329.137 49H326.961ZM323.009 43.096H325.025C325.707 43.096 326.219 42.9253 326.561 42.584C326.913 42.2427 327.089 41.784 327.089 41.208C327.089 40.632 326.918 40.184 326.577 39.864C326.235 39.5333 325.718 39.368 325.025 39.368H323.009V43.096ZM339.374 44.376C339.374 44.7067 339.353 45.0053 339.31 45.272H332.574C332.627 45.976 332.889 46.5413 333.358 46.968C333.827 47.3947 334.403 47.608 335.086 47.608C336.067 47.608 336.761 47.1973 337.166 46.376H339.134C338.867 47.1867 338.382 47.8533 337.678 48.376C336.985 48.888 336.121 49.144 335.086 49.144C334.243 49.144 333.486 48.9573 332.814 48.584C332.153 48.2 331.63 47.6667 331.246 46.984C330.873 46.2907 330.686 45.4907 330.686 44.584C330.686 43.6773 330.867 42.8827 331.23 42.2C331.603 41.5067 332.121 40.9733 332.782 40.6C333.454 40.2267 334.222 40.04 335.086 40.04C335.918 40.04 336.659 40.2213 337.31 40.584C337.961 40.9467 338.467 41.4587 338.83 42.12C339.193 42.7707 339.374 43.5227 339.374 44.376ZM337.47 43.8C337.459 43.128 337.219 42.5893 336.75 42.184C336.281 41.7787 335.699 41.576 335.006 41.576C334.377 41.576 333.838 41.7787 333.39 42.184C332.942 42.5787 332.675 43.1173 332.59 43.8H337.47ZM340.561 44.584C340.561 43.6773 340.742 42.8827 341.105 42.2C341.478 41.5067 341.99 40.9733 342.641 40.6C343.292 40.2267 344.038 40.04 344.881 40.04C345.948 40.04 346.828 40.296 347.521 40.808C348.225 41.3093 348.7 42.0293 348.945 42.968H346.977C346.817 42.5307 346.561 42.1893 346.209 41.944C345.857 41.6987 345.414 41.576 344.881 41.576C344.134 41.576 343.537 41.8427 343.089 42.376C342.652 42.8987 342.433 43.6347 342.433 44.584C342.433 45.5333 342.652 46.2747 343.089 46.808C343.537 47.3413 344.134 47.608 344.881 47.608C345.937 47.608 346.636 47.144 346.977 46.216H348.945C348.689 47.112 348.209 47.8267 347.505 48.36C346.801 48.8827 345.926 49.144 344.881 49.144C344.038 49.144 343.292 48.9573 342.641 48.584C341.99 48.2 341.478 47.6667 341.105 46.984C340.742 46.2907 340.561 45.4907 340.561 44.584ZM351.691 39.016C351.36 39.016 351.083 38.904 350.859 38.68C350.635 38.456 350.523 38.1787 350.523 37.848C350.523 37.5173 350.635 37.24 350.859 37.016C351.083 36.792 351.36 36.68 351.691 36.68C352.011 36.68 352.283 36.792 352.507 37.016C352.731 37.24 352.843 37.5173 352.843 37.848C352.843 38.1787 352.731 38.456 352.507 38.68C352.283 38.904 352.011 39.016 351.691 39.016ZM352.587 40.184V49H350.763V40.184H352.587ZM356.805 41.48C357.115 41.0747 357.536 40.7333 358.069 40.456C358.603 40.1787 359.205 40.04 359.877 40.04C360.645 40.04 361.344 40.232 361.973 40.616C362.613 40.9893 363.115 41.5173 363.477 42.2C363.84 42.8827 364.021 43.6667 364.021 44.552C364.021 45.4373 363.84 46.232 363.477 46.936C363.115 47.6293 362.613 48.1733 361.973 48.568C361.344 48.952 360.645 49.144 359.877 49.144C359.205 49.144 358.608 49.0107 358.085 48.744C357.563 48.4667 357.136 48.1253 356.805 47.72V53.192H354.981V40.184H356.805V41.48ZM362.165 44.552C362.165 43.944 362.037 43.4213 361.781 42.984C361.536 42.536 361.205 42.2 360.789 41.976C360.384 41.7413 359.947 41.624 359.477 41.624C359.019 41.624 358.581 41.7413 358.165 41.976C357.76 42.2107 357.429 42.552 357.173 43C356.928 43.448 356.805 43.976 356.805 44.584C356.805 45.192 356.928 45.7253 357.173 46.184C357.429 46.632 357.76 46.9733 358.165 47.208C358.581 47.4427 359.019 47.56 359.477 47.56C359.947 47.56 360.384 47.4427 360.789 47.208C361.205 46.9627 361.536 46.6107 361.781 46.152C362.037 45.6933 362.165 45.16 362.165 44.552ZM373.905 44.376C373.905 44.7067 373.884 45.0053 373.841 45.272H367.105C367.159 45.976 367.42 46.5413 367.889 46.968C368.359 47.3947 368.935 47.608 369.617 47.608C370.599 47.608 371.292 47.1973 371.697 46.376H373.665C373.399 47.1867 372.913 47.8533 372.209 48.376C371.516 48.888 370.652 49.144 369.617 49.144C368.775 49.144 368.017 48.9573 367.345 48.584C366.684 48.2 366.161 47.6667 365.777 46.984C365.404 46.2907 365.217 45.4907 365.217 44.584C365.217 43.6773 365.399 42.8827 365.761 42.2C366.135 41.5067 366.652 40.9733 367.313 40.6C367.985 40.2267 368.753 40.04 369.617 40.04C370.449 40.04 371.191 40.2213 371.841 40.584C372.492 40.9467 372.999 41.4587 373.361 42.12C373.724 42.7707 373.905 43.5227 373.905 44.376ZM372.001 43.8C371.991 43.128 371.751 42.5893 371.281 42.184C370.812 41.7787 370.231 41.576 369.537 41.576C368.908 41.576 368.369 41.7787 367.921 42.184C367.473 42.5787 367.207 43.1173 367.121 43.8H372.001ZM378.9 49.144C378.207 49.144 377.583 49.0213 377.028 48.776C376.484 48.52 376.052 48.1787 375.732 47.752C375.412 47.3147 375.242 46.8293 375.22 46.296H377.108C377.14 46.6693 377.316 46.984 377.636 47.24C377.967 47.4853 378.378 47.608 378.868 47.608C379.38 47.608 379.775 47.512 380.052 47.32C380.34 47.1173 380.484 46.8613 380.484 46.552C380.484 46.2213 380.324 45.976 380.004 45.816C379.695 45.656 379.199 45.48 378.516 45.288C377.855 45.1067 377.316 44.9307 376.9 44.76C376.484 44.5893 376.122 44.328 375.812 43.976C375.514 43.624 375.364 43.16 375.364 42.584C375.364 42.1147 375.503 41.688 375.78 41.304C376.058 40.9093 376.452 40.6 376.964 40.376C377.487 40.152 378.084 40.04 378.756 40.04C379.759 40.04 380.564 40.296 381.172 40.808C381.791 41.3093 382.122 41.9973 382.164 42.872H380.34C380.308 42.4773 380.148 42.1627 379.86 41.928C379.572 41.6933 379.183 41.576 378.692 41.576C378.212 41.576 377.844 41.6667 377.588 41.848C377.332 42.0293 377.204 42.2693 377.204 42.568C377.204 42.8027 377.29 43 377.46 43.16C377.631 43.32 377.839 43.448 378.084 43.544C378.33 43.6293 378.692 43.7413 379.172 43.88C379.812 44.0507 380.335 44.2267 380.74 44.408C381.156 44.5787 381.514 44.8347 381.812 45.176C382.111 45.5173 382.266 45.9707 382.276 46.536C382.276 47.0373 382.138 47.4853 381.86 47.88C381.583 48.2747 381.188 48.584 380.676 48.808C380.175 49.032 379.583 49.144 378.9 49.144ZM393.475 49.112C392.441 49.112 391.486 48.872 390.611 48.392C389.747 47.9013 389.059 47.224 388.547 46.36C388.046 45.4853 387.795 44.504 387.795 43.416C387.795 42.328 388.046 41.352 388.547 40.488C389.059 39.624 389.747 38.952 390.611 38.472C391.486 37.9813 392.441 37.736 393.475 37.736C394.521 37.736 395.475 37.9813 396.339 38.472C397.214 38.952 397.902 39.624 398.403 40.488C398.905 41.352 399.155 42.328 399.155 43.416C399.155 44.504 398.905 45.4853 398.403 46.36C397.902 47.224 397.214 47.9013 396.339 48.392C395.475 48.872 394.521 49.112 393.475 49.112ZM393.475 47.528C394.211 47.528 394.867 47.3627 395.443 47.032C396.019 46.6907 396.467 46.2107 396.787 45.592C397.118 44.9627 397.283 44.2373 397.283 43.416C397.283 42.5947 397.118 41.8747 396.787 41.256C396.467 40.6373 396.019 40.1627 395.443 39.832C394.867 39.5013 394.211 39.336 393.475 39.336C392.739 39.336 392.083 39.5013 391.507 39.832C390.931 40.1627 390.478 40.6373 390.147 41.256C389.827 41.8747 389.667 42.5947 389.667 43.416C389.667 44.2373 389.827 44.9627 390.147 45.592C390.478 46.2107 390.931 46.6907 391.507 47.032C392.083 47.3627 392.739 47.528 393.475 47.528ZM405.398 40.04C406.092 40.04 406.71 40.184 407.254 40.472C407.809 40.76 408.241 41.1867 408.55 41.752C408.86 42.3173 409.014 43 409.014 43.8V49H407.206V44.072C407.206 43.2827 407.009 42.68 406.614 42.264C406.22 41.8373 405.681 41.624 404.998 41.624C404.316 41.624 403.772 41.8373 403.366 42.264C402.972 42.68 402.774 43.2827 402.774 44.072V49H400.95V40.184H402.774V41.192C403.073 40.8293 403.452 40.5467 403.91 40.344C404.38 40.1413 404.876 40.04 405.398 40.04ZM413.165 37.16V49H411.341V37.16H413.165ZM423.496 40.184L418.088 53.144H416.2L417.992 48.856L414.52 40.184H416.552L419.032 46.904L421.608 40.184H423.496Z" fill="white"/>
<path d="M455.27 43L449.907 37.6375L451.439 36.1057L458.334 43L451.439 49.8943L449.907 48.3625L455.27 43Z" fill="white"/>
<rect x="513.6" width="236.8" height="86" rx="10" fill="#DC582A"/>
<path d="M546.336 49H544.512L539.024 40.696V49H537.2V37.864H539.024L544.512 46.152V37.864H546.336V49ZM552.555 49.144C551.723 49.144 550.971 48.9573 550.299 48.584C549.627 48.2 549.099 47.6667 548.715 46.984C548.331 46.2907 548.139 45.4907 548.139 44.584C548.139 43.688 548.336 42.8933 548.731 42.2C549.126 41.5067 549.664 40.9733 550.347 40.6C551.03 40.2267 551.792 40.04 552.635 40.04C553.478 40.04 554.24 40.2267 554.923 40.6C555.606 40.9733 556.144 41.5067 556.539 42.2C556.934 42.8933 557.131 43.688 557.131 44.584C557.131 45.48 556.928 46.2747 556.523 46.968C556.118 47.6613 555.563 48.2 554.859 48.584C554.166 48.9573 553.398 49.144 552.555 49.144ZM552.555 47.56C553.024 47.56 553.462 47.448 553.867 47.224C554.283 47 554.619 46.664 554.875 46.216C555.131 45.768 555.259 45.224 555.259 44.584C555.259 43.944 555.136 43.4053 554.891 42.968C554.646 42.52 554.32 42.184 553.915 41.96C553.51 41.736 553.072 41.624 552.603 41.624C552.134 41.624 551.696 41.736 551.291 41.96C550.896 42.184 550.582 42.52 550.347 42.968C550.112 43.4053 549.995 43.944 549.995 44.584C549.995 45.5333 550.235 46.2693 550.715 46.792C551.206 47.304 551.819 47.56 552.555 47.56ZM563.382 40.04C564.076 40.04 564.694 40.184 565.238 40.472C565.793 40.76 566.225 41.1867 566.534 41.752C566.844 42.3173 566.998 43 566.998 43.8V49H565.19V44.072C565.19 43.2827 564.993 42.68 564.598 42.264C564.204 41.8373 563.665 41.624 562.982 41.624C562.3 41.624 561.756 41.8373 561.35 42.264C560.956 42.68 560.758 43.2827 560.758 44.072V49H558.934V40.184H560.758V41.192C561.057 40.8293 561.436 40.5467 561.894 40.344C562.364 40.1413 562.86 40.04 563.382 40.04ZM583.065 37.88L578.889 49H576.777L572.585 37.88H574.537L577.833 47.128L581.145 37.88H583.065ZM592.671 44.376C592.671 44.7067 592.649 45.0053 592.607 45.272H585.871C585.924 45.976 586.185 46.5413 586.655 46.968C587.124 47.3947 587.7 47.608 588.383 47.608C589.364 47.608 590.057 47.1973 590.463 46.376H592.431C592.164 47.1867 591.679 47.8533 590.975 48.376C590.281 48.888 589.417 49.144 588.383 49.144C587.54 49.144 586.783 48.9573 586.111 48.584C585.449 48.2 584.927 47.6667 584.543 46.984C584.169 46.2907 583.983 45.4907 583.983 44.584C583.983 43.6773 584.164 42.8827 584.527 42.2C584.9 41.5067 585.417 40.9733 586.079 40.6C586.751 40.2267 587.519 40.04 588.383 40.04C589.215 40.04 589.956 40.2213 590.607 40.584C591.257 40.9467 591.764 41.4587 592.127 42.12C592.489 42.7707 592.671 43.5227 592.671 44.376ZM590.767 43.8C590.756 43.128 590.516 42.5893 590.047 42.184C589.577 41.7787 588.996 41.576 588.303 41.576C587.673 41.576 587.135 41.7787 586.687 42.184C586.239 42.5787 585.972 43.1173 585.887 43.8H590.767ZM598.018 40.04C598.7 40.04 599.303 40.1787 599.826 40.456C600.359 40.7227 600.775 41.0587 601.074 41.464V40.184H602.914V49.144C602.914 49.9547 602.743 50.6747 602.402 51.304C602.06 51.944 601.564 52.4453 600.914 52.808C600.274 53.1707 599.506 53.352 598.61 53.352C597.415 53.352 596.423 53.0693 595.634 52.504C594.844 51.9493 594.396 51.192 594.29 50.232H596.098C596.236 50.6907 596.53 51.0587 596.978 51.336C597.436 51.624 597.98 51.768 598.61 51.768C599.346 51.768 599.938 51.544 600.386 51.096C600.844 50.648 601.074 49.9973 601.074 49.144V47.672C600.764 48.088 600.343 48.44 599.81 48.728C599.287 49.0053 598.69 49.144 598.018 49.144C597.25 49.144 596.546 48.952 595.906 48.568C595.276 48.1733 594.775 47.6293 594.402 46.936C594.039 46.232 593.858 45.4373 593.858 44.552C593.858 43.6667 594.039 42.8827 594.402 42.2C594.775 41.5173 595.276 40.9893 595.906 40.616C596.546 40.232 597.25 40.04 598.018 40.04ZM601.074 44.584C601.074 43.976 600.946 43.448 600.69 43C600.444 42.552 600.119 42.2107 599.714 41.976C599.308 41.7413 598.871 41.624 598.402 41.624C597.932 41.624 597.495 41.7413 597.09 41.976C596.684 42.2 596.354 42.536 596.098 42.984C595.852 43.4213 595.73 43.944 595.73 44.552C595.73 45.16 595.852 45.6933 596.098 46.152C596.354 46.6107 596.684 46.9627 597.09 47.208C597.506 47.4427 597.943 47.56 598.402 47.56C598.871 47.56 599.308 47.4427 599.714 47.208C600.119 46.9733 600.444 46.632 600.69 46.184C600.946 45.7253 601.074 45.192 601.074 44.584ZM615.242 49L612.682 44.552H611.29V49H609.466V37.88H613.306C614.159 37.88 614.879 38.0293 615.466 38.328C616.063 38.6267 616.506 39.0267 616.794 39.528C617.092 40.0293 617.242 40.5893 617.242 41.208C617.242 41.9333 617.028 42.5947 616.602 43.192C616.186 43.7787 615.54 44.1787 614.666 44.392L617.418 49H615.242ZM611.29 43.096H613.306C613.988 43.096 614.5 42.9253 614.842 42.584C615.194 42.2427 615.37 41.784 615.37 41.208C615.37 40.632 615.199 40.184 614.858 39.864C614.516 39.5333 613.999 39.368 613.306 39.368H611.29V43.096ZM627.655 44.376C627.655 44.7067 627.634 45.0053 627.591 45.272H620.855C620.908 45.976 621.17 46.5413 621.639 46.968C622.108 47.3947 622.684 47.608 623.367 47.608C624.348 47.608 625.042 47.1973 625.447 46.376H627.415C627.148 47.1867 626.663 47.8533 625.959 48.376C625.266 48.888 624.402 49.144 623.367 49.144C622.524 49.144 621.767 48.9573 621.095 48.584C620.434 48.2 619.911 47.6667 619.527 46.984C619.154 46.2907 618.967 45.4907 618.967 44.584C618.967 43.6773 619.148 42.8827 619.511 42.2C619.884 41.5067 620.402 40.9733 621.063 40.6C621.735 40.2267 622.503 40.04 623.367 40.04C624.199 40.04 624.94 40.2213 625.591 40.584C626.242 40.9467 626.748 41.4587 627.111 42.12C627.474 42.7707 627.655 43.5227 627.655 44.376ZM625.751 43.8C625.74 43.128 625.5 42.5893 625.031 42.184C624.562 41.7787 623.98 41.576 623.287 41.576C622.658 41.576 622.119 41.7787 621.671 42.184C621.223 42.5787 620.956 43.1173 620.871 43.8H625.751ZM628.842 44.584C628.842 43.6773 629.023 42.8827 629.386 42.2C629.759 41.5067 630.271 40.9733 630.922 40.6C631.573 40.2267 632.319 40.04 633.162 40.04C634.229 40.04 635.109 40.296 635.802 40.808C636.506 41.3093 636.981 42.0293 637.226 42.968H635.258C635.098 42.5307 634.842 42.1893 634.49 41.944C634.138 41.6987 633.695 41.576 633.162 41.576C632.415 41.576 631.818 41.8427 631.37 42.376C630.933 42.8987 630.714 43.6347 630.714 44.584C630.714 45.5333 630.933 46.2747 631.37 46.808C631.818 47.3413 632.415 47.608 633.162 47.608C634.218 47.608 634.917 47.144 635.258 46.216H637.226C636.97 47.112 636.49 47.8267 635.786 48.36C635.082 48.8827 634.207 49.144 633.162 49.144C632.319 49.144 631.573 48.9573 630.922 48.584C630.271 48.2 629.759 47.6667 629.386 46.984C629.023 46.2907 628.842 45.4907 628.842 44.584ZM639.972 39.016C639.641 39.016 639.364 38.904 639.14 38.68C638.916 38.456 638.804 38.1787 638.804 37.848C638.804 37.5173 638.916 37.24 639.14 37.016C639.364 36.792 639.641 36.68 639.972 36.68C640.292 36.68 640.564 36.792 640.788 37.016C641.012 37.24 641.124 37.5173 641.124 37.848C641.124 38.1787 641.012 38.456 640.788 38.68C640.564 38.904 640.292 39.016 639.972 39.016ZM640.868 40.184V49H639.044V40.184H640.868ZM645.086 41.48C645.396 41.0747 645.817 40.7333 646.35 40.456C646.884 40.1787 647.486 40.04 648.158 40.04C648.926 40.04 649.625 40.232 650.254 40.616C650.894 40.9893 651.396 41.5173 651.758 42.2C652.121 42.8827 652.302 43.6667 652.302 44.552C652.302 45.4373 652.121 46.232 651.758 46.936C651.396 47.6293 650.894 48.1733 650.254 48.568C649.625 48.952 648.926 49.144 648.158 49.144C647.486 49.144 646.889 49.0107 646.366 48.744C645.844 48.4667 645.417 48.1253 645.086 47.72V53.192H643.262V40.184H645.086V41.48ZM650.446 44.552C650.446 43.944 650.318 43.4213 650.062 42.984C649.817 42.536 649.486 42.2 649.07 41.976C648.665 41.7413 648.228 41.624 647.758 41.624C647.3 41.624 646.862 41.7413 646.446 41.976C646.041 42.2107 645.71 42.552 645.454 43C645.209 43.448 645.086 43.976 645.086 44.584C645.086 45.192 645.209 45.7253 645.454 46.184C645.71 46.632 646.041 46.9733 646.446 47.208C646.862 47.4427 647.3 47.56 647.758 47.56C648.228 47.56 648.665 47.4427 649.07 47.208C649.486 46.9627 649.817 46.6107 650.062 46.152C650.318 45.6933 650.446 45.16 650.446 44.552ZM662.186 44.376C662.186 44.7067 662.165 45.0053 662.122 45.272H655.386C655.439 45.976 655.701 46.5413 656.17 46.968C656.639 47.3947 657.215 47.608 657.898 47.608C658.879 47.608 659.573 47.1973 659.978 46.376H661.946C661.679 47.1867 661.194 47.8533 660.49 48.376C659.797 48.888 658.933 49.144 657.898 49.144C657.055 49.144 656.298 48.9573 655.626 48.584C654.965 48.2 654.442 47.6667 654.058 46.984C653.685 46.2907 653.498 45.4907 653.498 44.584C653.498 43.6773 653.679 42.8827 654.042 42.2C654.415 41.5067 654.933 40.9733 655.594 40.6C656.266 40.2267 657.034 40.04 657.898 40.04C658.73 40.04 659.471 40.2213 660.122 40.584C660.773 40.9467 661.279 41.4587 661.642 42.12C662.005 42.7707 662.186 43.5227 662.186 44.376ZM660.282 43.8C660.271 43.128 660.031 42.5893 659.562 42.184C659.093 41.7787 658.511 41.576 657.818 41.576C657.189 41.576 656.65 41.7787 656.202 42.184C655.754 42.5787 655.487 43.1173 655.402 43.8H660.282ZM667.181 49.144C666.488 49.144 665.864 49.0213 665.309 48.776C664.765 48.52 664.333 48.1787 664.013 47.752C663.693 47.3147 663.522 46.8293 663.501 46.296H665.389C665.421 46.6693 665.597 46.984 665.917 47.24C666.248 47.4853 666.658 47.608 667.149 47.608C667.661 47.608 668.056 47.512 668.333 47.32C668.621 47.1173 668.765 46.8613 668.765 46.552C668.765 46.2213 668.605 45.976 668.285 45.816C667.976 45.656 667.48 45.48 666.797 45.288C666.136 45.1067 665.597 44.9307 665.181 44.76C664.765 44.5893 664.402 44.328 664.093 43.976C663.794 43.624 663.645 43.16 663.645 42.584C663.645 42.1147 663.784 41.688 664.061 41.304C664.338 40.9093 664.733 40.6 665.245 40.376C665.768 40.152 666.365 40.04 667.037 40.04C668.04 40.04 668.845 40.296 669.453 40.808C670.072 41.3093 670.402 41.9973 670.445 42.872H668.621C668.589 42.4773 668.429 42.1627 668.141 41.928C667.853 41.6933 667.464 41.576 666.973 41.576C666.493 41.576 666.125 41.6667 665.869 41.848C665.613 42.0293 665.485 42.2693 665.485 42.568C665.485 42.8027 665.57 43 665.741 43.16C665.912 43.32 666.12 43.448 666.365 43.544C666.61 43.6293 666.973 43.7413 667.453 43.88C668.093 44.0507 668.616 44.2267 669.021 44.408C669.437 44.5787 669.794 44.8347 670.093 45.176C670.392 45.5173 670.546 45.9707 670.557 46.536C670.557 47.0373 670.418 47.4853 670.141 47.88C669.864 48.2747 669.469 48.584 668.957 48.808C668.456 49.032 667.864 49.144 667.181 49.144Z" fill="white"/>
<path d="M716.27 43L710.907 37.6375L712.439 36.1057L719.333 43L712.439 49.8943L710.907 48.3625L716.27 43Z" fill="white"/>
</svg>
